<?xml version="1.0" encoding="UTF-8" standalone="no"?>
<!-- Created with Inkscape (http://www.inkscape.org/) -->

<svg
   xmlns:dc="http://purl.org/dc/elements/1.1/"
   xmlns:cc="http://creativecommons.org/ns#"
   xmlns:rdf="http://www.w3.org/1999/02/22-rdf-syntax-ns#"
   xmlns:svg="http://www.w3.org/2000/svg"
   xmlns="http://www.w3.org/2000/svg"
   xmlns:sodipodi="http://sodipodi.sourceforge.net/DTD/sodipodi-0.dtd"
   xmlns:inkscape="http://www.inkscape.org/namespaces/inkscape"
   width="440mm"
   height="330mm"
   viewBox="0 0 1559.0552 1169.2913"
   id="svg2"
   version="1.1"
   inkscape:version="0.91 r13725"
   sodipodi:docname="map.svg"
   inkscape:export-filename="C:\Users\Leif\Programmering\HTML5\Monster Tower\www\images\map1.png"
   inkscape:export-xdpi="36.950001"
   inkscape:export-ydpi="36.950001">
  <defs
     id="defs4" />
  <sodipodi:namedview
     id="base"
     pagecolor="#ffffff"
     bordercolor="#666666"
     borderopacity="1.0"
     inkscape:pageopacity="0.0"
     inkscape:pageshadow="2"
     inkscape:zoom="0.35"
     inkscape:cx="-303.67955"
     inkscape:cy="267.96951"
     inkscape:document-units="px"
     inkscape:current-layer="layer1"
     showgrid="false"
     inkscape:window-width="2315"
     inkscape:window-height="1501"
     inkscape:window-x="1406"
     inkscape:window-y="76"
     inkscape:window-maximized="0" />
  <metadata
     id="metadata7">
    <rdf:RDF>
      <cc:Work
         rdf:about="">
        <dc:format>image/svg+xml</dc:format>
        <dc:type
           rdf:resource="http://purl.org/dc/dcmitype/StillImage" />
        <dc:title />
      </cc:Work>
    </rdf:RDF>
  </metadata>
  <g
     inkscape:label="Layer 1"
     inkscape:groupmode="layer"
     id="layer1"
     transform="translate(0,116.92913)">
    <path
       style="opacity:1;fill:#d7d7d7;fill-opacity:0.54651166;fill-rule:evenodd;stroke:none;stroke-width:1px;stroke-linecap:butt;stroke-linejoin:miter;stroke-opacity:1"
       d="m 1071.1096,-467.63779 866.0332,51.42857 -13.1716,2171.42862 -2081.11407,68.5714 52.68645,-2308.57145 z"
       id="path4175"
       inkscape:connector-curvature="0" />
    <path
       style="opacity:1;fill:#bed3f0;fill-opacity:0.65116278;fill-rule:evenodd;stroke:none;stroke-width:1px;stroke-linecap:butt;stroke-linejoin:miter;stroke-opacity:1"
       d="m 1154.1421,187.34118 120,-788.57143 c 0,0 -1145.71425,-114.28571 -1282.85711,57.14286 C -145.85786,-372.65882 -105.85787,1013.0555 -34.429293,1184.484 104.8768,1080.979 287.06821,997.89551 585.57071,970.19829 l 320,-197.14282 85.71428,-360 z"
       id="path4160"
       inkscape:connector-curvature="0"
       sodipodi:nodetypes="ccsccccc" />
    <g
       id="g4164"
       style="fill:#f6f6f6;fill-opacity:1"
       transform="translate(485.71428,85.714284)">
      <path
         sodipodi:nodetypes="cssssssssssssssssscsssccscssccccssscsssscccc"
         inkscape:connector-curvature="0"
         id="path4136"
         d="m 142.49922,819.33349 c -0.47527,2.75301 4.41629,5.81062 -23.37141,8.56937 -27.787699,2.75876 -87.462154,-26.11084 -88.127098,2.73566 -0.666468,28.91267 62.026095,4.66583 86.554108,6.26627 24.52801,1.60043 11.90163,8.84507 9.08969,11.84729 -5.62388,6.00442 -12.87815,10.38117 -22.22486,11.37798 -34.620972,3.69226 -82.847571,-2.842 -82.511382,18.09001 0.34837,21.69042 125.180102,15.65878 161.612402,1.76288 C 250.562,854.41225 300,755.21935 374.28571,758.07649 448.57143,760.93363 542.85714,886.64792 585.71429,860.93363 628.57143,835.21935 614.28571,752.3622 600,718.07649 585.71429,683.79078 485.71429,623.79078 537.14286,606.64792 588.57143,589.50506 688.57143,598.07649 654.28571,572.3622 620,546.64792 588.57143,452.3622 608.57143,438.07649 c 20,-14.28571 65.71428,-77.14286 22.85714,-74.28571 -42.85714,2.85714 -100,0 -97.14286,-22.85715 2.85715,-22.85714 -8.57142,-80 20,-80 28.57143,0 97.14286,17.14286 97.14286,0 0,-17.14285 11.42857,-174.285711 11.42857,-174.285711 0,0 -54.28571,34.285711 -80,2.857143 -25.71428,-31.428572 -25.71428,-48.571429 -45.71428,-42.857143 -20,5.714286 -228.57143,20 -240,91.428571 -11.42857,71.42857 -11.42857,157.14286 -11.42857,157.14286 l 68.57142,2.85714 c 0,0 -20,74.28571 0,82.85714 20,8.57143 68.57143,2.85715 68.57143,2.85715 0,0 -57.14285,8.57142 -74.28571,25.71428 -17.14286,17.14286 -122.85714,102.85714 -74.28572,111.42857 48.57143,8.57143 71.42858,8.57143 71.42858,8.57143 l 65.71428,-57.14286 -80,77.14286 L 220,523.79078 c 0,0 20,-65.71429 14.28571,-74.28572 -5.71428,-8.57143 -40,-108.57143 -22.85714,-108.57143 17.14286,0 37.14286,17.14286 45.71429,0 8.57143,-17.14285 -45.71429,-42.85714 -45.71429,-42.85714 0,0 -5.71428,-54.28571 -14.28571,-65.71429 -8.57143,-11.42857 -85.71429,-62.85714 -85.71429,-34.28571 0,28.57143 11.42857,348.57143 -8.57143,408.57143 -19.999997,60 -34.285711,68.57143 -2.85714,71.42857 31.42857,2.85714 111.42857,-8.57143 111.42857,-8.57143 0,0 -28.57143,28.57143 -62.85714,28.57143 0,0 -26.16274,52.09853 -39.81436,77.27412 7.48781,25.83643 38.22028,17.62122 33.74215,43.98288 z"
         style="fill:#f6f6f6;fill-opacity:1;fill-rule:evenodd;stroke:#000000;stroke-width:1px;stroke-linecap:butt;stroke-linejoin:miter;stroke-opacity:1" />
      <ellipse
         ry="12.857142"
         rx="37.142857"
         cy="760.8916"
         cx="68.744743"
         id="path4138"
         style="opacity:1;fill:#f6f6f6;fill-opacity:1;fill-rule:nonzero;stroke:#362e8d;stroke-width:2;stroke-linecap:square;stroke-linejoin:bevel;stroke-miterlimit:4;stroke-dasharray:none;stroke-dashoffset:0;stroke-opacity:1" />
      <ellipse
         transform="matrix(0.94065861,0.33935436,-0.33935436,0.94065861,0,0)"
         ry="31.647854"
         rx="10.219283"
         cy="87.335075"
         cx="171.53072"
         id="path4144"
         style="opacity:1;fill:#f6f6f6;fill-opacity:1;fill-rule:nonzero;stroke:#362e8d;stroke-width:1.56143427;stroke-linecap:square;stroke-linejoin:bevel;stroke-miterlimit:4;stroke-dasharray:none;stroke-dashoffset:0;stroke-opacity:1" />
      <ellipse
         inkscape:transform-center-y="0.66988387"
         inkscape:transform-center-x="-2.7775001"
         transform="matrix(0.40611201,0.9138233,-0.9138233,0.40611201,0,0)"
         style="opacity:1;fill:#f6f6f6;fill-opacity:1;fill-rule:nonzero;stroke:#362e8d;stroke-width:1.56143427;stroke-linecap:square;stroke-linejoin:bevel;stroke-miterlimit:4;stroke-dasharray:none;stroke-dashoffset:0;stroke-opacity:1"
         id="ellipse4150"
         cx="149.0892"
         cy="-141.57381"
         rx="10.219283"
         ry="31.647854" />
      <ellipse
         ry="31.647854"
         rx="10.219283"
         cy="-259.50034"
         cx="78.475769"
         id="ellipse4152"
         style="opacity:1;fill:#f6f6f6;fill-opacity:1;fill-rule:nonzero;stroke:#362e8d;stroke-width:1.56143427;stroke-linecap:square;stroke-linejoin:bevel;stroke-miterlimit:4;stroke-dasharray:none;stroke-dashoffset:0;stroke-opacity:1"
         transform="matrix(0.06087715,0.99814527,-0.99814527,0.06087715,0,0)"
         inkscape:transform-center-x="-2.3678441"
         inkscape:transform-center-y="1.5989512" />
      <ellipse
         inkscape:transform-center-y="1.5188689"
         inkscape:transform-center-x="-2.4199963"
         transform="matrix(0.09422522,0.99555091,-0.99555091,0.09422522,0,0)"
         style="opacity:1;fill:#f6f6f6;fill-opacity:1;fill-rule:nonzero;stroke:#362e8d;stroke-width:1.56143427;stroke-linecap:square;stroke-linejoin:bevel;stroke-miterlimit:4;stroke-dasharray:none;stroke-dashoffset:0;stroke-opacity:1"
         id="ellipse4154"
         cx="90.65255"
         cy="-325.32565"
         rx="10.219283"
         ry="31.647854" />
      <ellipse
         ry="31.692009"
         rx="7.5977321"
         cy="-394.01132"
         cx="84.889297"
         id="ellipse4156"
         style="opacity:1;fill:#f6f6f6;fill-opacity:1;fill-rule:nonzero;stroke:#362e8d;stroke-width:1.34728122;stroke-linecap:square;stroke-linejoin:bevel;stroke-miterlimit:4;stroke-dasharray:none;stroke-dashoffset:0;stroke-opacity:1"
         transform="matrix(0.12717104,0.9918808,-0.99756813,0.06969814,0,0)"
         inkscape:transform-center-x="0.4386289"
         inkscape:transform-center-y="1.1250742" />
      <ellipse
         inkscape:transform-center-y="1.1250742"
         inkscape:transform-center-x="0.4386289"
         transform="matrix(0.12717104,0.9918808,-0.99756813,0.06969814,0,0)"
         style="opacity:1;fill:#f6f6f6;fill-opacity:1;fill-rule:nonzero;stroke:#362e8d;stroke-width:1.34728122;stroke-linecap:square;stroke-linejoin:bevel;stroke-miterlimit:4;stroke-dasharray:none;stroke-dashoffset:0;stroke-opacity:1"
         id="ellipse4158"
         cx="81.510658"
         cy="-468.90884"
         rx="7.5977321"
         ry="31.692009" />
      <ellipse
         style="opacity:1;fill:#f6f6f6;fill-opacity:1;fill-rule:nonzero;stroke:#362e8d;stroke-width:2;stroke-linecap:square;stroke-linejoin:bevel;stroke-miterlimit:4;stroke-dasharray:none;stroke-dashoffset:0;stroke-opacity:1"
         id="ellipse4162"
         cx="82.886879"
         cy="722.50586"
         rx="37.142857"
         ry="12.857142" />
    </g>
    <circle
       style="opacity:1;fill:#ff4a4a;fill-opacity:1;fill-rule:nonzero;stroke:none;stroke-width:2;stroke-linecap:square;stroke-linejoin:bevel;stroke-miterlimit:4;stroke-dasharray:none;stroke-dashoffset:0;stroke-opacity:1"
       id="path4177"
       cx="674.61285"
       cy="619.86829"
       r="21.213203" />
    <text
       xml:space="preserve"
       style="font-style:normal;font-variant:normal;font-weight:normal;font-stretch:normal;font-size:40px;line-height:125%;font-family:Arial;-inkscape-font-specification:Arial;letter-spacing:0px;word-spacing:0px;fill:#000000;fill-opacity:1;stroke:none;stroke-width:1px;stroke-linecap:butt;stroke-linejoin:miter;stroke-opacity:1"
       x="617.03412"
       y="582.49261"
       id="text4179"
       sodipodi:linespacing="125%"><tspan
         sodipodi:role="line"
         id="tspan4181"
         x="617.03412"
         y="582.49261">Amsterdam</tspan></text>
    <circle
       r="21.213203"
       cy="684.51801"
       cx="620.06464"
       id="circle4183"
       style="opacity:1;fill:#ff4a4a;fill-opacity:1;fill-rule:nonzero;stroke:none;stroke-width:2;stroke-linecap:square;stroke-linejoin:bevel;stroke-miterlimit:4;stroke-dasharray:none;stroke-dashoffset:0;stroke-opacity:1" />
    <text
       sodipodi:linespacing="125%"
       id="text4185"
       y="655.22357"
       x="443.2879"
       style="font-style:normal;font-variant:normal;font-weight:normal;font-stretch:normal;font-size:40px;line-height:125%;font-family:Arial;-inkscape-font-specification:Arial;letter-spacing:0px;word-spacing:0px;fill:#000000;fill-opacity:1;stroke:none;stroke-width:1px;stroke-linecap:butt;stroke-linejoin:miter;stroke-opacity:1"
       xml:space="preserve"><tspan
         y="655.22357"
         x="443.2879"
         id="tspan4187"
         sodipodi:role="line">The Hague</tspan></text>
    <circle
       style="opacity:1;fill:#ff4a4a;fill-opacity:1;fill-rule:nonzero;stroke:none;stroke-width:2;stroke-linecap:square;stroke-linejoin:bevel;stroke-miterlimit:4;stroke-dasharray:none;stroke-dashoffset:0;stroke-opacity:1"
       id="path4189"
       cx="596.83112"
       cy="731.99518"
       r="8.0812206" />
    <path
       style="fill:#5f5f5f;fill-opacity:1;fill-rule:evenodd;stroke:#5f5f5f;stroke-width:3;stroke-linecap:butt;stroke-linejoin:miter;stroke-miterlimit:4;stroke-dasharray:none;stroke-opacity:1"
       d="m 433.18635,67.314794 c 0,0 84.85281,202.030516 105.05586,333.350346 20.20305,131.31983 57.99711,331.67666 57.99711,331.67666 0,0 -57.99711,-323.59544 -60.01742,-436.73253 -2.0203,-113.13708 16.16245,-244.456915 16.16245,-244.456915 z"
       id="path4191"
       inkscape:connector-curvature="0"
       sodipodi:nodetypes="cscscc" />
    <text
       xml:space="preserve"
       style="font-style:normal;font-variant:normal;font-weight:normal;font-stretch:normal;font-size:93.09558105px;line-height:125%;font-family:Arial;-inkscape-font-specification:Arial;letter-spacing:0px;word-spacing:0px;fill:#000000;fill-opacity:1;stroke:none;stroke-width:1px;stroke-linecap:butt;stroke-linejoin:miter;stroke-opacity:1"
       x="315.97"
       y="107.86406"
       id="text4193"
       sodipodi:linespacing="125%"
       transform="matrix(0.99240207,-0.12303714,0.12303714,0.99240207,0,0)"><tspan
         sodipodi:role="line"
         id="tspan4195"
         x="315.97"
         y="107.86406">Monster</tspan></text>
  </g>
</svg>
