<?xml version="1.0" encoding="UTF-8" standalone="no"?>
<!-- Created with Inkscape (http://www.inkscape.org/) -->

<svg
   xmlns:dc="http://purl.org/dc/elements/1.1/"
   xmlns:cc="http://creativecommons.org/ns#"
   xmlns:rdf="http://www.w3.org/1999/02/22-rdf-syntax-ns#"
   xmlns:svg="http://www.w3.org/2000/svg"
   xmlns="http://www.w3.org/2000/svg"
   xmlns:sodipodi="http://sodipodi.sourceforge.net/DTD/sodipodi-0.dtd"
   xmlns:inkscape="http://www.inkscape.org/namespaces/inkscape"
   width="48"
   height="32"
   viewBox="0 0 48 32.000001"
   id="svg5525"
   version="1.1"
   inkscape:version="0.91 r13725"
   sodipodi:docname="stair-build-icon.svg"
   inkscape:export-filename="C:\Users\Leif\Programmering\HTML5\Monster Tower\www\images\stair-build-icon.png"
   inkscape:export-xdpi="90"
   inkscape:export-ydpi="90">
  <defs
     id="defs5527" />
  <sodipodi:namedview
     id="base"
     pagecolor="#ffffff"
     bordercolor="#666666"
     borderopacity="1.0"
     inkscape:pageopacity="0.0"
     inkscape:pageshadow="2"
     inkscape:zoom="11.2"
     inkscape:cx="17.747671"
     inkscape:cy="37.014577"
     inkscape:document-units="px"
     inkscape:current-layer="layer1"
     showgrid="false"
     units="px"
     inkscape:window-width="1920"
     inkscape:window-height="1138"
     inkscape:window-x="1912"
     inkscape:window-y="-8"
     inkscape:window-maximized="1" />
  <metadata
     id="metadata5530">
    <rdf:RDF>
      <cc:Work
         rdf:about="">
        <dc:format>image/svg+xml</dc:format>
        <dc:type
           rdf:resource="http://purl.org/dc/dcmitype/StillImage" />
        <dc:title />
      </cc:Work>
    </rdf:RDF>
  </metadata>
  <g
     inkscape:label="Layer 1"
     inkscape:groupmode="layer"
     id="layer1"
     transform="translate(0,-1020.3622)">
    <rect
       style="fill:#d1d1d1;fill-opacity:1;fill-rule:nonzero;stroke:#000000;stroke-width:0.24491721;stroke-miterlimit:4;stroke-dasharray:none;stroke-opacity:1"
       id="rect3921"
       width="47.755085"
       height="31.755083"
       x="0.1224586"
       y="-1052.2397"
       transform="scale(1,-1)" />
    <g
       id="g8720"
       transform="matrix(0.64636902,0,0,0.64636902,6.7792879,370.88722)">
      <path
         sodipodi:nodetypes="ccccscccc"
         style="fill:#c13500;fill-opacity:1;fill-rule:evenodd;stroke:#000000;stroke-width:1.50570452px;stroke-linecap:butt;stroke-linejoin:round;stroke-opacity:1"
         d="m 32.706585,1020.9797 c 0,0 4.452084,6.2843 6.334215,8.2386 3.947612,1.5161 6.299215,10.3519 6.299215,10.3519 l 0,11.5808 c 0,0 -5.239345,-9.7366 -7.793665,-11.8877 -2.554312,-2.1511 -28.3663894,-7.1252 -28.3663894,-7.1252 0,0 -2.065079,-11.8354 -0.8551379,-12.6421 1.209941,-0.8065 5.0765683,-1.4249 10.9918373,-0.8874 5.915266,0.5379 13.389933,2.3711 13.389925,2.3711 z"
         id="path8412"
         inkscape:connector-curvature="0" />
      <path
         style="fill:#c13500;fill-opacity:1;fill-rule:evenodd;stroke:#000000;stroke-width:1.50511622;stroke-linecap:round;stroke-linejoin:round;stroke-miterlimit:4;stroke-dasharray:none;stroke-opacity:1"
         d="m 28.349055,1009.3009 c 0,0 -0.330797,5.7659 -2.239658,7.6806 -2.102494,2.6893 -4.525489,1.5542 -5.044093,1.412 l -0.0031,6.8111 c 3.898027,-0.2391 6.934607,0.4449 7.420735,-6.993 z"
         id="path8414"
         inkscape:connector-curvature="0"
         sodipodi:nodetypes="cccccc" />
      <path
         sodipodi:nodetypes="ccccc"
         inkscape:connector-curvature="0"
         id="path8434"
         d="m 27.869917,1021.902 16.155199,0.3583 0.04891,-4.2295 -14.787151,0 c -0.168282,1.385 -0.774955,2.6046 -1.416958,3.8712 z"
         style="fill:#6b6b6b;fill-opacity:1;fill-rule:evenodd;stroke:none;stroke-width:1px;stroke-linecap:butt;stroke-linejoin:miter;stroke-opacity:1" />
      <path
         style="fill:#6b6b6b;fill-opacity:1;fill-rule:evenodd;stroke:none;stroke-width:1px;stroke-linecap:butt;stroke-linejoin:miter;stroke-opacity:1"
         d="m 28.539009,1051.3626 16.132548,0 -2.016569,-3.8987 -14.519292,-0.4032 z"
         id="path8420"
         inkscape:connector-curvature="0" />
      <path
         sodipodi:nodetypes="ccccc"
         style="fill:#373737;fill-opacity:1;fill-rule:evenodd;stroke:none;stroke-width:1px;stroke-linecap:butt;stroke-linejoin:miter;stroke-opacity:1"
         d="m 28.638572,1047.5985 14.436502,0 0.05789,-2.7054 -14.43202,-0.036 z"
         id="path8436"
         inkscape:connector-curvature="0" />
      <path
         inkscape:connector-curvature="0"
         id="path8422"
         d="m 27.692547,1045.9429 16.132549,0 -2.016569,-3.8987 -14.519294,-0.4034 z"
         style="fill:#6b6b6b;fill-opacity:1;fill-rule:evenodd;stroke:none;stroke-width:1px;stroke-linecap:butt;stroke-linejoin:miter;stroke-opacity:1" />
      <path
         inkscape:connector-curvature="0"
         id="path8438"
         d="m 28.25352,1044.2964 14.253938,-1.0497 0.05789,-2.612 -14.386379,0.6027 z"
         style="fill:#373737;fill-opacity:1;fill-rule:evenodd;stroke:none;stroke-width:1px;stroke-linecap:butt;stroke-linejoin:miter;stroke-opacity:1"
         sodipodi:nodetypes="ccccc" />
      <path
         sodipodi:nodetypes="ccccc"
         style="fill:#6b6b6b;fill-opacity:1;fill-rule:evenodd;stroke:none;stroke-width:1px;stroke-linecap:butt;stroke-linejoin:miter;stroke-opacity:1"
         d="m 26.089242,1042.4823 17.130857,-1.2772 -1.10124,-1.6282 c -4.333085,-4.2015 -6.889111,-1.1737 -12.553436,-2.0365 z"
         id="path8416"
         inkscape:connector-curvature="0" />
      <path
         sodipodi:nodetypes="ccccc"
         style="fill:#373737;fill-opacity:1;fill-rule:evenodd;stroke:none;stroke-width:1px;stroke-linecap:butt;stroke-linejoin:miter;stroke-opacity:1"
         d="m 27.361435,1040.5507 14.025733,-1.6441 0.05789,-1.7604 -14.02125,1.6079 z"
         id="path8440"
         inkscape:connector-curvature="0" />
      <path
         inkscape:connector-curvature="0"
         id="path8442"
         d="m 27.41866,1039.4699 14.403984,-2.346 -1.18673,-0.9856 c -2.827772,-2.6811 -8.665764,0.7904 -14.330087,-0.072 z"
         style="fill:#6b6b6b;fill-opacity:1;fill-rule:evenodd;stroke:none;stroke-width:1px;stroke-linecap:butt;stroke-linejoin:miter;stroke-opacity:1"
         sodipodi:nodetypes="ccccc" />
      <path
         inkscape:connector-curvature="0"
         id="path8618"
         d="m 26.129126,1038.2686 12.839063,-2.9676 0.05789,-1.7605 -12.834581,2.9315 z"
         style="fill:#373737;fill-opacity:1;fill-rule:evenodd;stroke:none;stroke-width:1px;stroke-linecap:butt;stroke-linejoin:miter;stroke-opacity:1"
         sodipodi:nodetypes="ccccc" />
      <path
         sodipodi:nodetypes="ccccc"
         style="fill:#6b6b6b;fill-opacity:1;fill-rule:evenodd;stroke:none;stroke-width:1px;stroke-linecap:butt;stroke-linejoin:miter;stroke-opacity:1"
         d="m 24.778822,1037.612 14.996462,-3.8345 -2.072423,-1.0803 c -4.083819,-1.8679 -7.687599,2.433 -13.417083,2.3896 z"
         id="path8616"
         inkscape:connector-curvature="0" />
      <path
         sodipodi:nodetypes="ccccc"
         style="fill:#373737;fill-opacity:1;fill-rule:evenodd;stroke:none;stroke-width:1px;stroke-linecap:butt;stroke-linejoin:miter;stroke-opacity:1"
         d="m 26.31169,1036.0777 11.104701,-3.5153 0.05789,-1.7604 -11.100219,3.4791 z"
         id="path8620"
         inkscape:connector-curvature="0" />
      <path
         sodipodi:nodetypes="ccscsc"
         style="fill:#ed4200;fill-opacity:1;fill-rule:evenodd;stroke:#000000;stroke-width:1.50667989;stroke-linecap:round;stroke-linejoin:round;stroke-miterlimit:4;stroke-dasharray:none;stroke-opacity:1"
         d="m 28.404571,1050.8248 0,-9.8139 c 0,0 -1.834021,-6.0777 -4.318853,-6.2874 -0.898623,-0.077 -2.714278,-2.2049 -2.714278,-2.2049 0,0 0.580112,5.2657 2.462243,7.4169 1.88213,2.1511 4.570888,10.9069 4.570888,10.9069"
         id="path8424"
         inkscape:connector-curvature="0" />
      <path
         sodipodi:nodetypes="cccccccc"
         style="fill:#ed4200;fill-opacity:1;fill-rule:evenodd;stroke:#000000;stroke-width:1.50570452px;stroke-linecap:butt;stroke-linejoin:round;stroke-opacity:1"
         d="m 45.264975,1007.9668 -1.95e-4,11.5948 c -0.284864,7.4984 -5.705573,14.116 -20.243404,14.8094 -17.7581919,1.1236 -16.9814798,-2.7228 -16.9814798,-2.7228 l -0.094796,-11.4671 c 0,0 0.7867571,3.4067 16.0390498,1.8149 11.573158,-1.011 14.201916,-3.923 16.322378,-6.1104 1.941332,-1.9841 4.95844,-7.9188 4.958447,-7.9188 z"
         id="path8418"
         inkscape:connector-curvature="0" />
    </g>
    <rect
       transform="scale(1,-1)"
       y="-1052.2397"
       x="0.1224586"
       height="31.755083"
       width="47.755085"
       id="rect8754"
       style="fill:none;fill-opacity:1;fill-rule:nonzero;stroke:#000000;stroke-width:0.24491721;stroke-miterlimit:4;stroke-dasharray:none;stroke-opacity:1" />
  </g>
</svg>
