<?xml version="1.0" encoding="UTF-8" standalone="no"?>
<!-- Created with Inkscape (http://www.inkscape.org/) -->

<svg
   xmlns:dc="http://purl.org/dc/elements/1.1/"
   xmlns:cc="http://creativecommons.org/ns#"
   xmlns:rdf="http://www.w3.org/1999/02/22-rdf-syntax-ns#"
   xmlns:svg="http://www.w3.org/2000/svg"
   xmlns="http://www.w3.org/2000/svg"
   xmlns:xlink="http://www.w3.org/1999/xlink"
   xmlns:sodipodi="http://sodipodi.sourceforge.net/DTD/sodipodi-0.dtd"
   xmlns:inkscape="http://www.inkscape.org/namespaces/inkscape"
   width="48"
   height="48"
   viewBox="0 0 48 48.000001"
   id="svg5525"
   version="1.1"
   inkscape:version="0.91 r13725"
   sodipodi:docname="stair.svg"
   inkscape:export-filename="C:\Users\Leif\Programmering\HTML5\Monster Tower\www\images\stair.png"
   inkscape:export-xdpi="90"
   inkscape:export-ydpi="90">
  <defs
     id="defs5527">
    <linearGradient
       inkscape:collect="always"
       id="linearGradient4743">
      <stop
         id="stop4747"
         offset="0"
         style="stop-color:#000000;stop-opacity:1" />
      <stop
         id="stop4745"
         offset="1"
         style="stop-color:#7b2c1f;stop-opacity:1;" />
    </linearGradient>
    <linearGradient
       inkscape:collect="always"
       xlink:href="#linearGradient4743"
       id="linearGradient4749"
       x1="13.258925"
       y1="1024.9932"
       x2="21.076845"
       y2="1024.9932"
       gradientUnits="userSpaceOnUse" />
  </defs>
  <sodipodi:namedview
     id="base"
     pagecolor="#ffffff"
     bordercolor="#666666"
     borderopacity="1.0"
     inkscape:pageopacity="0.0"
     inkscape:pageshadow="2"
     inkscape:zoom="11.2"
     inkscape:cx="29.298591"
     inkscape:cy="36.436708"
     inkscape:document-units="px"
     inkscape:current-layer="layer1"
     showgrid="false"
     units="px"
     inkscape:window-width="1140"
     inkscape:window-height="1122"
     inkscape:window-x="2684"
     inkscape:window-y="0"
     inkscape:window-maximized="0" />
  <metadata
     id="metadata5530">
    <rdf:RDF>
      <cc:Work
         rdf:about="">
        <dc:format>image/svg+xml</dc:format>
        <dc:type
           rdf:resource="http://purl.org/dc/dcmitype/StillImage" />
        <dc:title />
      </cc:Work>
    </rdf:RDF>
  </metadata>
  <g
     inkscape:label="Layer 1"
     inkscape:groupmode="layer"
     id="layer1"
     transform="translate(0,-1004.3622)">
    <path
       inkscape:connector-curvature="0"
       id="path8412"
       d="m 32.921498,1022.319 c 0,0 -0.994344,6.8647 2.048501,8.1047 3.947612,1.5161 7.538382,9.0834 7.538382,9.0834 l 0,11.5808 c 0,0 -4.761801,-10.0718 -7.604261,-11.8246 -7.492779,-4.6203 -31.4021037,-5.3395 -31.4021037,-5.3395 l -0.8997808,-11.7939 c 1.6807867,-0.9242 11.2638705,-1.8316 16.6308425,0.8519 8.058122,3.5735 13.688428,-0.6628 13.68842,-0.6628 z"
       style="fill:#7b2c1f;fill-opacity:1;fill-rule:evenodd;stroke:#000000;stroke-width:1.20000005;stroke-linecap:butt;stroke-linejoin:round;stroke-miterlimit:4;stroke-dasharray:none;stroke-opacity:1"
       sodipodi:nodetypes="ccccscccc" />
    <path
       sodipodi:nodetypes="cccccc"
       inkscape:connector-curvature="0"
       id="path8414"
       d="m 26.022498,1009.0484 c 0,0 -0.967559,4.6655 -2.823188,7.9331 -1.812043,2.8904 -4.068228,4.2059 -4.586832,4.0637 l -0.05858,4.1594 c 3.898027,-0.2391 7.116351,0.1924 7.602479,-7.2455 z"
       style="fill:#7b2c1f;fill-opacity:1;fill-rule:evenodd;stroke:#000000;stroke-width:1.20000005;stroke-linecap:round;stroke-linejoin:round;stroke-miterlimit:4;stroke-dasharray:none;stroke-opacity:1" />
    <path
       sodipodi:nodetypes="ccccc"
       inkscape:connector-curvature="0"
       id="path4727"
       d="m 26.791131,1020.544 -3.800062,5.8808 -0.04557,-7.4662 c 1.750491,-2.8115 2.326824,-5.1009 3.706287,-9.3488 z"
       style="fill:#7b2c1f;fill-opacity:1;fill-rule:evenodd;stroke:none;stroke-width:1px;stroke-linecap:butt;stroke-linejoin:miter;stroke-opacity:1" />
    <path
       inkscape:connector-curvature="0"
       id="path4725"
       d="m 25.561097,1023.0905 13.281659,-0.023 0.05358,-2.7906 -13.181021,-0.022 z"
       style="fill:#373737;fill-opacity:1;fill-rule:evenodd;stroke:none;stroke-width:1px;stroke-linecap:butt;stroke-linejoin:miter;stroke-opacity:1"
       sodipodi:nodetypes="ccccc" />
    <path
       style="fill:#6b6b6b;fill-opacity:1;fill-rule:evenodd;stroke:none;stroke-width:1px;stroke-linecap:butt;stroke-linejoin:miter;stroke-opacity:1"
       d="m 25.629473,1020.4288 15.887342,-0.088 -0.08502,-2.3099 -14.697865,0.1339 c -0.09619,1.0656 -0.469632,1.4345 -1.104458,2.2641 z"
       id="path8434"
       inkscape:connector-curvature="0"
       sodipodi:nodetypes="ccccc" />
    <path
       inkscape:connector-curvature="0"
       id="path8420"
       d="m 25.896779,1051.3626 16.132548,0 c -1.103698,-2.3413 -2.24023,-4.6661 -3.579069,-6.8898 l -13.537149,1.07 z"
       style="fill:#6b6b6b;fill-opacity:1;fill-rule:evenodd;stroke:none;stroke-width:1px;stroke-linecap:butt;stroke-linejoin:miter;stroke-opacity:1"
       sodipodi:nodetypes="ccccc" />
    <path
       style="fill:#7b2c1f;fill-opacity:1;fill-rule:evenodd;stroke:none;stroke-width:1px;stroke-linecap:butt;stroke-linejoin:miter;stroke-opacity:1"
       d="m 41.875,1046.4693 0.04464,4.8215 -4.107143,-7.4107 0.133928,-4.9554 z"
       id="path4723"
       inkscape:connector-curvature="0"
       sodipodi:nodetypes="ccccc" />
    <path
       sodipodi:nodetypes="ccccc"
       style="fill:#373737;fill-opacity:1;fill-rule:evenodd;stroke:none;stroke-width:1px;stroke-linecap:butt;stroke-linejoin:miter;stroke-opacity:1"
       d="m 25.605738,1046.2964 13.192373,-0.9604 0.05358,-2.612 -13.31495,0.5134 z"
       id="path8438"
       inkscape:connector-curvature="0" />
    <path
       inkscape:connector-curvature="0"
       id="path8416"
       d="m 24.161298,1044.3573 14.809428,-1.0986 c -0.634851,-1.7015 -1.199667,-2.2684 -1.958385,-3.3246 -1.784767,-2.1479 -4.913214,-2.6023 -10.342797,-0.8758 z"
       style="fill:#5a5a5a;fill-opacity:1;fill-rule:evenodd;stroke:none;stroke-width:1px;stroke-linecap:butt;stroke-linejoin:miter;stroke-opacity:1"
       sodipodi:nodetypes="ccccc" />
    <path
       inkscape:connector-curvature="0"
       id="path8440"
       d="m 24.897777,1040.8629 11.623947,-1.4655 0.05789,-1.7604 -11.619464,1.4293 z"
       style="fill:#323232;fill-opacity:1;fill-rule:evenodd;stroke:none;stroke-width:1px;stroke-linecap:butt;stroke-linejoin:miter;stroke-opacity:1"
       sodipodi:nodetypes="ccccc" />
    <path
       sodipodi:nodetypes="ccccc"
       style="fill:#575757;fill-opacity:1;fill-rule:evenodd;stroke:none;stroke-width:1px;stroke-linecap:butt;stroke-linejoin:miter;stroke-opacity:1"
       d="m 24.77643,1039.4699 12.037913,-1.9442 c -1.575982,-1.347 -2.403122,-1.8045 -4.579587,-2.9945 -2.315125,-0.7248 -2.948865,0.7091 -9.196159,2.0262 z"
       id="path8442"
       inkscape:connector-curvature="0" />
    <path
       inkscape:connector-curvature="0"
       id="path8620"
       d="m 22.374817,1037.3278 9.943987,-2.7207 0.05789,-2.2961 -9.939505,2.6845 z"
       style="fill:#2e2e2e;fill-opacity:1;fill-rule:evenodd;stroke:none;stroke-width:1px;stroke-linecap:butt;stroke-linejoin:miter;stroke-opacity:1"
       sodipodi:nodetypes="ccccc" />
    <path
       inkscape:connector-curvature="0"
       id="path8424"
       d="m 25.762341,1050.8248 0,-9.8139 c -3.261928,-4.2084 -4.178299,-7.1253 -4.452781,-12.0017 -0.133241,-2.3672 -4.723207,-0.5085 -4.723207,-0.5085 -1.00953,-0.091 1.987945,0.1672 2.463415,3.6049 0.385939,2.7904 -0.411552,4.6596 2.588116,9.5263 2.0378,3.3061 4.124459,9.2105 4.124459,9.2105"
       style="fill:#864237;fill-opacity:1;fill-rule:evenodd;stroke:#000000;stroke-width:1.20000005;stroke-linecap:round;stroke-linejoin:round;stroke-miterlimit:4;stroke-dasharray:none;stroke-opacity:1"
       sodipodi:nodetypes="ccscssc" />
    <path
       style="fill:url(#linearGradient4749);fill-opacity:1;fill-rule:evenodd;stroke:none;stroke-width:1px;stroke-linecap:butt;stroke-linejoin:miter;stroke-opacity:1"
       d="m 21.701845,1023.8476 -3.800062,6.0594 0.08836,-8.0912 c 2.195061,-0.4238 2.333939,-0.6769 3.681835,-1.8627 z"
       id="path4733"
       inkscape:connector-curvature="0"
       sodipodi:nodetypes="ccccc" />
    <path
       inkscape:connector-curvature="0"
       id="path8418"
       d="m 42.622745,1008.8597 -1.95e-4,10.7019 c -0.284864,7.4984 -3.919858,13.0446 -18.457689,14.988 -16.1510497,2.7307 -21.4457662,-0.7585 -21.4457662,-0.7585 l -0.094796,-11.4671 c 0,0 6.3224713,4.478 20.5033342,1.279 10.680301,-2.0824 12.763443,-4.1637 14.883905,-6.3511 1.607423,-1.8733 4.33098,-4.7494 4.611207,-8.3923 z"
       style="fill:#cc3b21;fill-opacity:1;fill-rule:evenodd;stroke:#000000;stroke-width:1.20000005;stroke-linecap:butt;stroke-linejoin:round;stroke-miterlimit:4;stroke-dasharray:none;stroke-opacity:1"
       sodipodi:nodetypes="ccccccccc" />
    <path
       style="fill:#cc3b21;fill-opacity:1;fill-rule:evenodd;stroke:none;stroke-width:1px;stroke-linecap:butt;stroke-linejoin:miter;stroke-opacity:1"
       d="m 43.264345,1017.5976 c -0.208622,4.0764 -0.29591,7.0115 -4.87149,10.97 l 3.302803,-14.9902 c 0.84177,-1.8852 1.184986,-2.2072 1.518628,-4.9638 z"
       id="path4729"
       inkscape:connector-curvature="0"
       sodipodi:nodetypes="ccccc" />
    <path
       sodipodi:nodetypes="ccccc"
       inkscape:connector-curvature="0"
       id="path4731"
       d="m 2.0828384,1032.8686 c 2.2659104,1.1505 2.6516935,1.2599 5.3791946,1.6229 l -2.4138884,-10.3598 c -1.6733511,-0.6703 -1.8424825,-0.6767 -3.0600079,-1.6362 z"
       style="fill:#cc3b21;fill-opacity:1;fill-rule:evenodd;stroke:none;stroke-width:1px;stroke-linecap:butt;stroke-linejoin:miter;stroke-opacity:1" />
  </g>
</svg>
