<?xml version="1.0" encoding="UTF-8" standalone="no"?>
<!-- Created with Inkscape (http://www.inkscape.org/) -->

<svg
   xmlns:dc="http://purl.org/dc/elements/1.1/"
   xmlns:cc="http://creativecommons.org/ns#"
   xmlns:rdf="http://www.w3.org/1999/02/22-rdf-syntax-ns#"
   xmlns:svg="http://www.w3.org/2000/svg"
   xmlns="http://www.w3.org/2000/svg"
   xmlns:sodipodi="http://sodipodi.sourceforge.net/DTD/sodipodi-0.dtd"
   xmlns:inkscape="http://www.inkscape.org/namespaces/inkscape"
   width="640"
   height="480"
   id="svg5553"
   version="1.1"
   inkscape:version="0.91 r13725"
   sodipodi:docname="won.svg"
   inkscape:export-filename="C:\Users\Leif\Programmering\HTML5\Monster Tower\www\images\won.png"
   inkscape:export-xdpi="90"
   inkscape:export-ydpi="90">
  <defs
     id="defs5555">
    <filter
       inkscape:label="Cross Noise"
       inkscape:menu="Overlays"
       inkscape:menu-tooltip="Adds a small scale screen like graininess"
       style="color-interpolation-filters:sRGB"
       id="filter11759">
      <feTurbulence
         type="fractalNoise"
         numOctaves="5"
         baseFrequency="1"
         seed="0"
         result="result0"
         id="feTurbulence11761" />
      <feConvolveMatrix
         kernelMatrix="-2 0 -2 0 -10 0 -2 0 -2 "
         order="3 3"
         result="result5"
         id="feConvolveMatrix11763" />
      <feColorMatrix
         result="result4"
         values="0"
         type="saturate"
         in="result5"
         id="feColorMatrix11765" />
      <feComposite
         k4="0"
         in2="result4"
         in="SourceGraphic"
         operator="arithmetic"
         k1="1.5"
         k2="0.5"
         k3="0.5"
         result="result2"
         id="feComposite11767" />
      <feBlend
         result="result6"
         in2="result4"
         mode="normal"
         id="feBlend11769" />
      <feComposite
         in2="SourceGraphic"
         in="result6"
         operator="in"
         result="result3"
         id="feComposite11771" />
    </filter>
  </defs>
  <sodipodi:namedview
     id="base"
     pagecolor="#ffffff"
     bordercolor="#666666"
     borderopacity="1.0"
     inkscape:pageopacity="0.0"
     inkscape:pageshadow="2"
     inkscape:zoom="0.7"
     inkscape:cx="-22.330199"
     inkscape:cy="164.55424"
     inkscape:document-units="px"
     inkscape:current-layer="layer1"
     showgrid="false"
     inkscape:window-width="1920"
     inkscape:window-height="1138"
     inkscape:window-x="1912"
     inkscape:window-y="-8"
     inkscape:window-maximized="1" />
  <metadata
     id="metadata5558">
    <rdf:RDF>
      <cc:Work
         rdf:about="">
        <dc:format>image/svg+xml</dc:format>
        <dc:type
           rdf:resource="http://purl.org/dc/dcmitype/StillImage" />
        <dc:title />
      </cc:Work>
    </rdf:RDF>
  </metadata>
  <g
     inkscape:label="Layer 1"
     inkscape:groupmode="layer"
     id="layer1"
     transform="translate(0,-572.36215)">
    <rect
       style="fill:#bfeec6;fill-opacity:1;fill-rule:nonzero;stroke:none"
       id="rect5602"
       width="640"
       height="480"
       x="0"
       y="572.36212" />
    <text
       xml:space="preserve"
       style="font-size:95.3176651px;font-style:normal;font-variant:normal;font-weight:normal;font-stretch:normal;line-height:125%;letter-spacing:0px;word-spacing:0px;fill:#000000;fill-opacity:1;stroke:none;font-family:Arial;-inkscape-font-specification:Arial"
       x="46.180267"
       y="732.06921"
       id="text5561"
       sodipodi:linespacing="125%"><tspan
         sodipodi:role="line"
         id="tspan5563"
         x="46.180267"
         y="732.06921">You made it!</tspan></text>
    <text
       sodipodi:linespacing="125%"
       id="text6112"
       y="834.98438"
       x="120.00743"
       style="font-style:normal;font-variant:normal;font-weight:normal;font-stretch:normal;font-size:44.41297913px;line-height:125%;font-family:Arial;-inkscape-font-specification:Arial;letter-spacing:0px;word-spacing:0px;fill:#000000;fill-opacity:1;stroke:none"
       xml:space="preserve"><tspan
         y="834.98438"
         x="120.00743"
         id="tspan6114"
         sodipodi:role="line">Town of MONSTER</tspan><tspan
         y="890.50061"
         x="120.00743"
         sodipodi:role="line"
         id="tspan6116">is now proud of you</tspan></text>
    <text
       xml:space="preserve"
       style="font-style:normal;font-variant:normal;font-weight:normal;font-stretch:normal;font-size:26.4440918px;line-height:125%;font-family:Arial;-inkscape-font-specification:Arial;letter-spacing:0px;word-spacing:0px;fill:#000000;fill-opacity:1;stroke:none"
       x="194.46803"
       y="1034.6199"
       id="text12877"
       sodipodi:linespacing="125%"><tspan
         id="tspan12881"
         sodipodi:role="line"
         x="194.46803"
         y="1034.6199">Click to continue play</tspan></text>
    <g
       id="g19424"
       transform="matrix(-3.1642863,11.989608,11.989608,3.1642863,-12260.764,-3100.358)">
      <path
         style="fill:none;fill-rule:evenodd;stroke:#318b2d;stroke-width:0.40000001;stroke-linecap:round;stroke-linejoin:miter;stroke-miterlimit:4;stroke-dasharray:none;stroke-opacity:1"
         d="m 61.869282,1048.0637 c 0,0 -0.34724,1.7677 -0.0947,2.115 0.252538,0.3472 0.757614,1.7677 0.568211,2.3991 -0.189404,0.6313 -0.441942,1.2942 -0.378808,2.4306 0.06314,1.1365 0.03157,2.9989 0.03157,2.9989"
         id="path19426"
         inkscape:connector-curvature="0" />
      <path
         style="fill:#d05000;fill-opacity:1;fill-rule:evenodd;stroke:none;stroke-width:1px;stroke-linecap:butt;stroke-linejoin:miter;stroke-opacity:1"
         d="m 61.395773,1045.5383 c 0,0 -0.568211,-0.6629 -0.883884,-0.4419 -0.315672,0.2209 -0.284105,0.5682 0.0947,1.0101 0.378807,0.442 1.104855,1.9888 1.104855,1.9888 z"
         id="path19428"
         inkscape:connector-curvature="0" />
      <path
         inkscape:connector-curvature="0"
         id="path19430"
         d="m 62.316962,1045.4751 c 0,0 0.568211,-0.6629 0.883884,-0.4419 0.315672,0.2209 0.284105,0.5682 -0.0947,1.0101 -0.378807,0.442 -1.104855,1.9888 -1.104855,1.9888 z"
         style="fill:#d05000;fill-opacity:1;fill-rule:evenodd;stroke:none;stroke-width:1px;stroke-linecap:butt;stroke-linejoin:miter;stroke-opacity:1" />
      <path
         style="fill:#ff742a;fill-opacity:1;fill-rule:evenodd;stroke:none;stroke-width:1px;stroke-linecap:butt;stroke-linejoin:miter;stroke-opacity:1;filter:url(#filter11759)"
         d="m 61.871616,1048.0284 c 0,0 -1.896947,-3.4468 -0.137657,-3.4456 1.759289,0 0.137657,3.4456 0.137657,3.4456 z"
         id="path19432"
         inkscape:connector-curvature="0" />
      <path
         style="fill:#0ad000;fill-opacity:1;fill-rule:evenodd;stroke:none;stroke-width:1px;stroke-linecap:butt;stroke-linejoin:miter;stroke-opacity:1"
         d="m 62.453869,1052.1358 c 0,0 -0.274413,-1.2464 0.215611,-1.2629 0.490023,-0.017 -0.215611,1.2629 -0.215611,1.2629 z"
         id="path19434"
         inkscape:connector-curvature="0" />
      <path
         inkscape:connector-curvature="0"
         id="path19436"
         d="m 62.081642,1053.773 c 0,0 -1.060175,-0.7105 -0.717633,-1.0613 0.342196,-0.3512 0.717633,1.0613 0.717633,1.0613 z"
         style="fill:#0ad000;fill-opacity:1;fill-rule:evenodd;stroke:none;stroke-width:1px;stroke-linecap:butt;stroke-linejoin:miter;stroke-opacity:1" />
      <path
         style="fill:#0ad000;fill-opacity:1;fill-rule:evenodd;stroke:none;stroke-width:1px;stroke-linecap:butt;stroke-linejoin:miter;stroke-opacity:1"
         d="m 61.734402,1050.1112 c 0,0 -1.060175,-0.7105 -0.717633,-1.0613 0.342196,-0.3512 0.717633,1.0613 0.717633,1.0613 z"
         id="path19438"
         inkscape:connector-curvature="0" />
    </g>
    <g
       transform="matrix(3.1642863,11.989608,-11.989608,3.1642863,12892.247,-3100.3579)"
       id="g15094">
      <path
         inkscape:connector-curvature="0"
         id="path15096"
         d="m 61.869282,1048.0637 c 0,0 -0.34724,1.7677 -0.0947,2.115 0.252538,0.3472 0.757614,1.7677 0.568211,2.3991 -0.189404,0.6313 -0.441942,1.2942 -0.378808,2.4306 0.06314,1.1365 0.03157,2.9989 0.03157,2.9989"
         style="fill:none;fill-rule:evenodd;stroke:#318b2d;stroke-width:0.40000001;stroke-linecap:round;stroke-linejoin:miter;stroke-miterlimit:4;stroke-dasharray:none;stroke-opacity:1" />
      <path
         inkscape:connector-curvature="0"
         id="path15098"
         d="m 61.395773,1045.5383 c 0,0 -0.568211,-0.6629 -0.883884,-0.4419 -0.315672,0.2209 -0.284105,0.5682 0.0947,1.0101 0.378807,0.442 1.104855,1.9888 1.104855,1.9888 z"
         style="fill:#d05000;fill-opacity:1;fill-rule:evenodd;stroke:none;stroke-width:1px;stroke-linecap:butt;stroke-linejoin:miter;stroke-opacity:1" />
      <path
         style="fill:#d05000;fill-opacity:1;fill-rule:evenodd;stroke:none;stroke-width:1px;stroke-linecap:butt;stroke-linejoin:miter;stroke-opacity:1"
         d="m 62.316962,1045.4751 c 0,0 0.568211,-0.6629 0.883884,-0.4419 0.315672,0.2209 0.284105,0.5682 -0.0947,1.0101 -0.378807,0.442 -1.104855,1.9888 -1.104855,1.9888 z"
         id="path15100"
         inkscape:connector-curvature="0" />
      <path
         inkscape:connector-curvature="0"
         id="path15102"
         d="m 61.871616,1048.0284 c 0,0 -1.896947,-3.4468 -0.137657,-3.4456 1.759289,0 0.137657,3.4456 0.137657,3.4456 z"
         style="fill:#ff742a;fill-opacity:1;fill-rule:evenodd;stroke:none;stroke-width:1px;stroke-linecap:butt;stroke-linejoin:miter;stroke-opacity:1;filter:url(#filter11759)" />
      <path
         inkscape:connector-curvature="0"
         id="path15104"
         d="m 62.453869,1052.1358 c 0,0 -0.274413,-1.2464 0.215611,-1.2629 0.490023,-0.017 -0.215611,1.2629 -0.215611,1.2629 z"
         style="fill:#0ad000;fill-opacity:1;fill-rule:evenodd;stroke:none;stroke-width:1px;stroke-linecap:butt;stroke-linejoin:miter;stroke-opacity:1" />
      <path
         style="fill:#0ad000;fill-opacity:1;fill-rule:evenodd;stroke:none;stroke-width:1px;stroke-linecap:butt;stroke-linejoin:miter;stroke-opacity:1"
         d="m 62.081642,1053.773 c 0,0 -1.060175,-0.7105 -0.717633,-1.0613 0.342196,-0.3512 0.717633,1.0613 0.717633,1.0613 z"
         id="path15106"
         inkscape:connector-curvature="0" />
      <path
         inkscape:connector-curvature="0"
         id="path15108"
         d="m 61.734402,1050.1112 c 0,0 -1.060175,-0.7105 -0.717633,-1.0613 0.342196,-0.3512 0.717633,1.0613 0.717633,1.0613 z"
         style="fill:#0ad000;fill-opacity:1;fill-rule:evenodd;stroke:none;stroke-width:1px;stroke-linecap:butt;stroke-linejoin:miter;stroke-opacity:1" />
    </g>
  </g>
</svg>
